<?xml version="1.0" encoding="utf-8"?>
<svg viewBox="0 0 512 512" xmlns="http://www.w3.org/2000/svg">
  <ellipse style="fill: rgb(244, 244, 244);" cx="256" cy="256" rx="146" ry="146"/>
  <path style="stroke: rgb(0, 0, 0); fill: rgb(255, 174, 0); stroke-width: 11.83px;" transform="matrix(1.096927, 0, 0, 1.104983, -303.456604, -266.165741)" d="M 492.314558576 254.305 L 527.729441424 254.305 L 539.357314428 291.587245338 A 183.33 183.33 0 0 1 568.146778059 298.683210812 L 595.768671591 271.075164054 L 627.126993006 287.533280748 L 620.097039909 325.94881156 A 183.33 183.33 0 0 1 642.291184373 345.611107806 L 679.579255504 334.001930428 L 699.697201959 363.147807624 L 675.619900295 393.896088757 A 183.33 183.33 0 0 1 686.134314563 421.620320663 L 724.546315567 428.669535296 L 728.815107977 463.826203773 L 693.206277394 479.863174577 A 183.33 183.33 0 0 1 689.63223587 509.298054726 L 720.368440232 533.39077125 L 707.8101497 566.504261944 L 668.827344152 564.156045675 A 183.33 183.33 0 0 1 651.983616678 588.558397753 L 668.002730389 624.175265161 L 641.494309933 647.659676416 L 608.068020377 627.464221121 A 183.33 183.33 0 0 1 581.813301927 641.243760348 L 579.445539089 680.225383546 L 545.059748373 688.70071976 L 524.847534916 655.284560866 A 183.33 183.33 0 0 1 495.196465084 655.284560866 L 474.984251627 688.70071976 L 440.598460911 680.225383546 L 438.230698073 641.243760348 A 183.33 183.33 0 0 1 411.975979623 627.464221121 L 378.549690067 647.659676416 L 352.041269611 624.175265161 L 368.060383322 588.558397753 A 183.33 183.33 0 0 1 351.216655848 564.156045675 L 312.2338503 566.504261944 L 299.675559768 533.39077125 L 330.41176413 509.298054726 A 183.33 183.33 0 0 1 326.837722606 479.863174577 L 291.228892023 463.826203773 L 295.497684433 428.669535296 L 333.909685437 421.620320663 A 183.33 183.33 0 0 1 344.424099705 393.896088757 L 320.346798041 363.147807624 L 340.464744496 334.001930428 L 377.752815627 345.611107806 A 183.33 183.33 0 0 1 399.946960091 325.94881156 L 392.917006994 287.533280748 L 424.275328409 271.075164054 L 451.897221941 298.683210812 A 183.33 183.33 0 0 1 480.686685572 291.587245338 Z M 510.022 341.605 A 130.95 130.95 0 0 0 510.022 603.505 A 130.95 130.95 0 0 0 510.022 341.605"/>
  <path d="M 203.99 203.846 L 198.015 203.846 L 195.64 197.667 L 184.767 197.667 L 182.522 203.846 L 176.696 203.846 L 187.291 176.645 L 193.098 176.645 Z M 193.877 193.084 L 190.129 182.991 L 186.456 193.084 Z M 206.865 176.645 L 212.357 176.645 L 212.357 191.377 Q 212.357 194.884 212.561 195.923 Q 212.913 197.593 214.24 198.604 Q 215.567 199.616 217.867 199.616 Q 220.205 199.616 221.393 198.66 Q 222.58 197.704 222.822 196.313 Q 223.063 194.921 223.063 191.693 L 223.063 176.645 L 228.555 176.645 L 228.555 190.932 Q 228.555 195.83 228.11 197.853 Q 227.664 199.875 226.468 201.267 Q 225.271 202.658 223.267 203.484 Q 221.263 204.31 218.034 204.31 Q 214.138 204.31 212.125 203.41 Q 210.112 202.51 208.943 201.072 Q 207.774 199.634 207.403 198.057 Q 206.865 195.719 206.865 191.155 Z M 240.466 203.846 L 240.466 181.246 L 232.395 181.246 L 232.395 176.645 L 254.011 176.645 L 254.011 181.246 L 245.958 181.246 L 245.958 203.846 Z M 255.754 190.412 Q 255.754 186.256 256.997 183.436 Q 257.925 181.358 259.53 179.706 Q 261.135 178.055 263.046 177.257 Q 265.588 176.181 268.909 176.181 Q 274.921 176.181 278.53 179.91 Q 282.139 183.64 282.139 190.283 Q 282.139 196.869 278.558 200.59 Q 274.976 204.31 268.983 204.31 Q 262.916 204.31 259.335 200.608 Q 255.754 196.907 255.754 190.412 Z M 261.413 190.227 Q 261.413 194.847 263.547 197.231 Q 265.681 199.616 268.965 199.616 Q 272.249 199.616 274.355 197.25 Q 276.461 194.884 276.461 190.153 Q 276.461 185.477 274.411 183.176 Q 272.36 180.875 268.965 180.875 Q 265.569 180.875 263.491 183.204 Q 261.413 185.533 261.413 190.227 Z" transform="matrix(2.243687, 0, 0, 2.982662, -260.44696, -352.353607)" style="white-space: pre;"/>
  <path transform="matrix(2.243687, 0, 0, 2.982662, -260.44696, -352.353607)" style="white-space: pre;"/>
  <path d="M 225.799 241.846 L 219.825 241.846 L 217.45 235.667 L 206.576 235.667 L 204.331 241.846 L 198.505 241.846 L 209.1 214.645 L 214.908 214.645 Z M 215.687 231.084 L 211.939 220.991 L 208.265 231.084 Z M 228.711 241.846 L 228.711 214.645 L 237.525 214.645 Q 242.534 214.645 244.056 215.053 Q 246.394 215.665 247.971 217.716 Q 249.548 219.766 249.548 223.013 Q 249.548 225.518 248.639 227.225 Q 247.73 228.932 246.329 229.906 Q 244.928 230.88 243.481 231.196 Q 241.514 231.585 237.784 231.585 L 234.203 231.585 L 234.203 241.846 Z M 234.203 219.246 L 234.203 226.965 L 237.209 226.965 Q 240.456 226.965 241.551 226.538 Q 242.646 226.112 243.267 225.202 Q 243.889 224.293 243.889 223.087 Q 243.889 221.603 243.017 220.638 Q 242.145 219.673 240.809 219.432 Q 239.825 219.246 236.857 219.246 Z M 253.886 241.846 L 253.886 214.645 L 259.379 214.645 L 259.379 241.846 Z" transform="matrix(2.243687, 0, 0, 2.982662, -260.44696, -352.353607)" style="white-space: pre;"/>
</svg>